<svg xmlns="http://www.w3.org/2000/svg" width="48" height="48" viewBox="0 0 48 48">
  <g id="Grupo_997" data-name="Grupo 997" transform="translate(-25 -53)">
    <g id="No" transform="translate(25 53)">
      <g id="Elipse_111" data-name="Elipse 111" fill="none" stroke="#4b85ff" stroke-width="2">
        <circle cx="24" cy="24" r="24" stroke="none"/>
        <circle cx="24" cy="24" r="23" fill="none"/>
      </g>
    </g>
    <g id="Travel" transform="translate(37.266 66.525)">
      <path id="Trazado_262" data-name="Trazado 262" d="M20.938.537A2.814,2.814,0,0,0,19.462,0a4.133,4.133,0,0,0-1.745.4,10.011,10.011,0,0,0-1.611.94,4.717,4.717,0,0,0-1.208.94,7.008,7.008,0,0,0-1.611,1.745L4.563,1.476c-.268,0-.4-.134-.805,0a1.025,1.025,0,0,0-.671.268l-.94,1.074c-.268.134-.268.268-.268.537s.134.4.4.537l7.248,4.7c-.134.268-.94,1.074-2.147,2.55l-4.429-.671a1.622,1.622,0,0,0-1.342.4L.134,12.482a.493.493,0,0,0-.134.4q0,.2.4.4l5.1,1.745a1.326,1.326,0,0,1,.94.94l1.745,5.1q.2.4.4.4a.493.493,0,0,0,.4-.134l1.476-1.476a1.287,1.287,0,0,0,.4-1.342L10.2,14.093c.134-.134.94-.805,2.55-2.013l4.7,7.248a1.853,1.853,0,0,0,.537.4c.268,0,.4,0,.537-.134L19.6,18.522a1.025,1.025,0,0,0,.268-.671v-.805L17.448,8.187a16.07,16.07,0,0,0,1.879-1.611,6.5,6.5,0,0,0,1.208-1.745,6.608,6.608,0,0,0,.805-2.282A2.106,2.106,0,0,0,20.938.537Z" fill="#4b85ff"/>
    </g>
  </g>
</svg>
