<svg xmlns="http://www.w3.org/2000/svg" width="15.903" height="18.175" viewBox="0 0 15.903 18.175">
  <path id="calendar-alt" d="M0,16.471a1.7,1.7,0,0,0,1.7,1.7H14.2a1.7,1.7,0,0,0,1.7-1.7V6.816H0ZM11.359,9.514a.427.427,0,0,1,.426-.426h1.42a.427.427,0,0,1,.426.426v1.42a.427.427,0,0,1-.426.426h-1.42a.427.427,0,0,1-.426-.426Zm0,4.544a.427.427,0,0,1,.426-.426h1.42a.427.427,0,0,1,.426.426v1.42a.427.427,0,0,1-.426.426h-1.42a.427.427,0,0,1-.426-.426ZM6.816,9.514a.427.427,0,0,1,.426-.426h1.42a.427.427,0,0,1,.426.426v1.42a.427.427,0,0,1-.426.426H7.242a.427.427,0,0,1-.426-.426Zm0,4.544a.427.427,0,0,1,.426-.426h1.42a.427.427,0,0,1,.426.426v1.42a.427.427,0,0,1-.426.426H7.242a.427.427,0,0,1-.426-.426ZM2.272,9.514A.427.427,0,0,1,2.7,9.088h1.42a.427.427,0,0,1,.426.426v1.42a.427.427,0,0,1-.426.426H2.7a.427.427,0,0,1-.426-.426Zm0,4.544a.427.427,0,0,1,.426-.426h1.42a.427.427,0,0,1,.426.426v1.42a.427.427,0,0,1-.426.426H2.7a.427.427,0,0,1-.426-.426ZM14.2,2.272H12.5V.568A.57.57,0,0,0,11.927,0H10.792a.57.57,0,0,0-.568.568v1.7H5.68V.568A.57.57,0,0,0,5.112,0H3.976a.57.57,0,0,0-.568.568v1.7H1.7A1.7,1.7,0,0,0,0,3.976v1.7H15.9v-1.7A1.7,1.7,0,0,0,14.2,2.272Z" fill="#4b85ff"/>
</svg>
