<svg xmlns="http://www.w3.org/2000/svg" xmlns:xlink="http://www.w3.org/1999/xlink" width="16" height="30.765" viewBox="0 0 16 30.765">
  <defs>
    <clipPath id="clip-path">
      <rect width="16" height="16" fill="none"/>
    </clipPath>
  </defs>
  <g id="Grupo_1003" data-name="Grupo 1003" transform="translate(-49 -184.235)">
    <g id="Places" transform="translate(49 199)" clip-path="url(#clip-path)">
      <rect id="Rectángulo_305" data-name="Rectángulo 305" width="16" height="16" transform="translate(0 0)" fill="none"/>
      <path id="Trazado_114" data-name="Trazado 114" d="M6.58,9.47A2.786,2.786,0,0,0,9.371,6.679,2.872,2.872,0,0,0,6.58,3.788,2.786,2.786,0,0,0,3.788,6.579,2.942,2.942,0,0,0,6.58,9.47ZM1.894,1.894a6.626,6.626,0,0,1,9.371,9.371L6.58,15.95,1.894,11.265A6.807,6.807,0,0,1,1.894,1.894Z" transform="translate(0.975 0.05)" fill="#4b85ff" fill-rule="evenodd"/>
    </g>
    <path id="Trazado_872" data-name="Trazado 872" d="M1.108,1.523a.46.46,0,0,0,.461-.461A.474.474,0,0,0,1.108.584a.46.46,0,0,0-.461.461A.486.486,0,0,0,1.108,1.523ZM.334.271A1.095,1.095,0,0,1,1.882,1.819a1.128,1.128,0,0,1-1.548,0A1.124,1.124,0,0,1,.334.271Z" transform="translate(55.386 184.285)" fill="#94989b" fill-rule="evenodd"/>
    <path id="Trazado_871" data-name="Trazado 871" d="M1.108,1.523a.46.46,0,0,0,.461-.461A.474.474,0,0,0,1.108.584a.46.46,0,0,0-.461.461A.486.486,0,0,0,1.108,1.523ZM.334.271A1.095,1.095,0,0,1,1.882,1.819a1.128,1.128,0,0,1-1.548,0A1.124,1.124,0,0,1,.334.271Z" transform="translate(55.386 189.873)" fill="#94989b" fill-rule="evenodd"/>
    <path id="Trazado_873" data-name="Trazado 873" d="M1.108,1.523a.46.46,0,0,0,.461-.461A.474.474,0,0,0,1.108.584a.46.46,0,0,0-.461.461A.486.486,0,0,0,1.108,1.523ZM.334.271A1.095,1.095,0,0,1,1.882,1.819a1.128,1.128,0,0,1-1.548,0A1.124,1.124,0,0,1,.334.271Z" transform="translate(55.386 195.462)" fill="#94989b" fill-rule="evenodd"/>
  </g>
</svg>
