<svg xmlns="http://www.w3.org/2000/svg" width="35.454" height="28.977" viewBox="0 0 35.454 28.977">
  <g id="Grupo_927" data-name="Grupo 927" transform="translate(-153 -379.91)">
    <g id="Grupo_864" data-name="Grupo 864" transform="translate(153 379.91)">
      <g id="Grupo_863" data-name="Grupo 863" transform="translate(0)">
        <path id="Trazado_1431" data-name="Trazado 1431" d="M79.817,94.115a58.376,58.376,0,0,1,7.568-3.443,1.869,1.869,0,0,1,.859-.1A.717.717,0,0,1,88.8,91.68a6.386,6.386,0,0,1-1.055,1.306,41.959,41.959,0,0,1-5.4,4.067,17.806,17.806,0,0,1-5.44,2.645,21.949,21.949,0,0,1-6.638.542c-.858-.037-1.715-.114-2.573-.161a6.165,6.165,0,0,0-4.47,1.6c-.071.061-.146.117-.266.214l-4.4-6.365A5.651,5.651,0,0,0,61.1,93.572a5.11,5.11,0,0,1,3.483-1.878,8.605,8.605,0,0,1,4.885.663,15.728,15.728,0,0,0,6.223,1.06c.857.016,1.714.027,2.571.051a1.639,1.639,0,0,1,.471.1.969.969,0,0,1,.374,1.747,5.7,5.7,0,0,1-2.847,1.13,16.36,16.36,0,0,1-4.616.118,2.807,2.807,0,0,0-.5-.014,10.284,10.284,0,0,0,7.63-.584,3.276,3.276,0,0,0,.442-.279A1.341,1.341,0,0,0,79.817,94.115Z" transform="translate(-53.466 -77.855)" fill="#4b85ff"/>
        <path id="Trazado_1432" data-name="Trazado 1432" d="M53.513,111.675l-3.133,2.9-6.961-9.629,3.53-2.729Zm-2.872.642a.787.787,0,1,0,.017-1.573.787.787,0,0,0-.017,1.573Z" transform="translate(-43.419 -85.595)" fill="#4b85ff"/>
        <path id="Trazado_1433" data-name="Trazado 1433" d="M92.169,59.131A6.352,6.352,0,1,1,98.55,65.5,6.364,6.364,0,0,1,92.169,59.131Zm6.317,5.177a5.166,5.166,0,1,0-5.136-5.169A5.158,5.158,0,0,0,98.486,64.308Z" transform="translate(-75.778 -52.786)" fill="#4b85ff"/>
        <path id="Trazado_1434" data-name="Trazado 1434" d="M106.412,62.383c0,.386-.015.773.011,1.157.006.09.132.207.23.251a10.139,10.139,0,0,1,1.072.444,1.586,1.586,0,0,1,.013,2.734,8.393,8.393,0,0,1-1.31.519l-.05.626h-.814l-.034-.7a2.294,2.294,0,0,1-2.217-1.927c.382,0,.726-.018,1.066.012.093.008.2.148.256.251a1.123,1.123,0,0,0,.905.624c0-.51.008-1-.01-1.485,0-.063-.133-.142-.22-.177-.3-.119-.613-.2-.9-.335a1.384,1.384,0,0,1-.869-1.292,1.494,1.494,0,0,1,.772-1.405,2.012,2.012,0,0,1,.7-.282c.38-.058.663-.144.509-.654h.842a.611.611,0,0,1,.04.189c-.035.3.084.4.385.464a1.716,1.716,0,0,1,1.538,1.642c-.345,0-.691.012-1.034-.009-.073,0-.14-.128-.208-.2l-.534-.547Zm.037,2.623v1.4c.538-.1.753-.293.773-.656C107.243,65.367,107.033,65.159,106.448,65.006Zm-.921-2.7c-.543.065-.778.278-.756.645.02.322.307.528.756.536Z" transform="translate(-83.175 -58.071)" fill="#4b85ff"/>
      </g>
    </g>
  </g>
</svg>
