<svg xmlns="http://www.w3.org/2000/svg" width="48" height="48" viewBox="0 0 48 48">
  <g id="Grupo_998" data-name="Grupo 998" transform="translate(-95 -53)">
    <g id="No" transform="translate(95 53)">
      <g id="Elipse_111" data-name="Elipse 111" fill="none" stroke="#4b85ff" stroke-width="2">
        <circle cx="24" cy="24" r="24" stroke="none"/>
        <circle cx="24" cy="24" r="23" fill="none"/>
      </g>
    </g>
    <path id="building" d="M18.287,20.133h-.839V1.007A1.007,1.007,0,0,0,16.442,0H2.349A1.007,1.007,0,0,0,1.342,1.007V20.133H.5a.5.5,0,0,0-.5.5v.839H18.791v-.839A.5.5,0,0,0,18.287,20.133ZM5.369,3.188a.5.5,0,0,1,.5-.5H7.55a.5.5,0,0,1,.5.5V4.865a.5.5,0,0,1-.5.5H5.872a.5.5,0,0,1-.5-.5Zm0,4.027a.5.5,0,0,1,.5-.5H7.55a.5.5,0,0,1,.5.5V8.892a.5.5,0,0,1-.5.5H5.872a.5.5,0,0,1-.5-.5ZM7.55,13.422H5.872a.5.5,0,0,1-.5-.5V11.241a.5.5,0,0,1,.5-.5H7.55a.5.5,0,0,1,.5.5v1.678A.5.5,0,0,1,7.55,13.422Zm3.188,6.711H8.053V16.609a.5.5,0,0,1,.5-.5h1.678a.5.5,0,0,1,.5.5Zm2.684-7.214a.5.5,0,0,1-.5.5H11.241a.5.5,0,0,1-.5-.5V11.241a.5.5,0,0,1,.5-.5h1.678a.5.5,0,0,1,.5.5Zm0-4.027a.5.5,0,0,1-.5.5H11.241a.5.5,0,0,1-.5-.5V7.214a.5.5,0,0,1,.5-.5h1.678a.5.5,0,0,1,.5.5Zm0-4.027a.5.5,0,0,1-.5.5H11.241a.5.5,0,0,1-.5-.5V3.188a.5.5,0,0,1,.5-.5h1.678a.5.5,0,0,1,.5.5Z" transform="translate(109.955 66.525)" fill="#4b85ff"/>
  </g>
</svg>
