<svg xmlns="http://www.w3.org/2000/svg" width="16" height="28.588" viewBox="0 0 16 28.588">
  <g id="Grupo_1002" data-name="Grupo 1002" transform="translate(-49 -150)">
    <g id="Places" transform="translate(49 150)">
      <rect id="Rectángulo_305" data-name="Rectángulo 305" width="16" height="16" transform="translate(0 0)" fill="none"/>
      <path id="Trazado_114" data-name="Trazado 114" d="M6.58,9.47A2.786,2.786,0,0,0,9.371,6.679,2.872,2.872,0,0,0,6.58,3.788,2.786,2.786,0,0,0,3.788,6.579,2.942,2.942,0,0,0,6.58,9.47ZM1.894,1.894a6.626,6.626,0,0,1,9.371,9.371,6.826,6.826,0,0,1-9.371,0A6.807,6.807,0,0,1,1.894,1.894Z" transform="translate(0.975 0.05)" fill="#4b85ff" fill-rule="evenodd"/>
    </g>
    <path id="Trazado_114-2" data-name="Trazado 114" d="M1.108,1.523a.46.46,0,0,0,.461-.461A.474.474,0,0,0,1.108.584a.46.46,0,0,0-.461.461A.486.486,0,0,0,1.108,1.523ZM.334.271A1.095,1.095,0,0,1,1.882,1.819a1.128,1.128,0,0,1-1.548,0A1.124,1.124,0,0,1,.334.271Z" transform="translate(55.386 165.285)" fill="#94989b" fill-rule="evenodd"/>
    <path id="Trazado_869" data-name="Trazado 869" d="M1.108,1.523a.46.46,0,0,0,.461-.461A.474.474,0,0,0,1.108.584a.46.46,0,0,0-.461.461A.486.486,0,0,0,1.108,1.523ZM.334.271A1.095,1.095,0,0,1,1.882,1.819a1.128,1.128,0,0,1-1.548,0A1.124,1.124,0,0,1,.334.271Z" transform="translate(55.386 170.873)" fill="#94989b" fill-rule="evenodd"/>
    <path id="Trazado_870" data-name="Trazado 870" d="M1.108,1.523a.46.46,0,0,0,.461-.461A.474.474,0,0,0,1.108.584a.46.46,0,0,0-.461.461A.486.486,0,0,0,1.108,1.523ZM.334.271A1.095,1.095,0,0,1,1.882,1.819a1.128,1.128,0,0,1-1.548,0A1.124,1.124,0,0,1,.334.271Z" transform="translate(55.386 176.462)" fill="#94989b" fill-rule="evenodd"/>
  </g>
</svg>
