<svg xmlns="http://www.w3.org/2000/svg" width="48" height="48" viewBox="0 0 48 48">
  <g id="Grupo_999" data-name="Grupo 999" transform="translate(-164 -53)">
    <g id="No" transform="translate(164 53)">
      <circle id="Elipse_111" data-name="Elipse 111" cx="24" cy="24" r="24" fill="#ffaf00"/>
    </g>
    <g id="Bag" transform="translate(178.263 66.525)">
      <path id="Trazado_152" data-name="Trazado 152" d="M12.172,9.4a1.223,1.223,0,1,0,2.434,0,1.223,1.223,0,1,0-2.434,0Zm-7.3,0A1.223,1.223,0,1,0,7.3,9.4a1.223,1.223,0,1,0-2.434,0ZM18.258,6.577,19.475,20a1.616,1.616,0,0,1-.365,1.074.914.914,0,0,1-.852.4H1.217a.914.914,0,0,1-.852-.4A1.616,1.616,0,0,1,0,20L1.217,6.577A1.347,1.347,0,0,1,2.434,5.369H4.869A5.152,5.152,0,0,1,9.737,0a5.152,5.152,0,0,1,4.869,5.369H17.04A1.347,1.347,0,0,1,18.258,6.577ZM12.172,5.369H7.3A2.576,2.576,0,0,1,9.737,2.684,2.576,2.576,0,0,1,12.172,5.369Z" fill="#fff" fill-rule="evenodd"/>
    </g>
  </g>
</svg>
