<svg id="Settings" xmlns="http://www.w3.org/2000/svg" width="22" height="21.728" viewBox="0 0 22 21.728">
  <rect id="Rectángulo_193" data-name="Rectángulo 193" width="21.728" height="21.728" fill="none"/>
  <path id="Trazado_104" data-name="Trazado 104" d="M270.185,13.58a2.716,2.716,0,1,0-2.716-2.716A2.724,2.724,0,0,0,270.185,13.58Zm-5.568-8.691a7.659,7.659,0,0,1,3.259-1.765L268.963,0h2.716l1.086,3.123a9.483,9.483,0,0,1,3.259,1.765l3.259-.679,1.358,2.444L278.469,9.1a7.743,7.743,0,0,1,.136,1.765c0,.543-.136,1.222-.136,1.765l2.173,2.444-1.358,2.444-3.259-.679a7.659,7.659,0,0,1-3.259,1.765l-1.086,3.123h-2.716L267.877,18.6a9.483,9.483,0,0,1-3.259-1.765l-3.259.679L260,15.074l2.173-2.444a7.742,7.742,0,0,1-.136-1.765c0-.543.136-1.222.136-1.765L260,6.654l1.358-2.444Z" transform="translate(-258.642)" fill="#666" fill-rule="evenodd"/>
</svg>
