<svg xmlns="http://www.w3.org/2000/svg" width="33.62" height="31.455" viewBox="0 0 33.62 31.455">
  <g id="Grupo_928" data-name="Grupo 928" transform="translate(578.377 426.437)">
    <path id="Trazado_1435" data-name="Trazado 1435" d="M-576.486-412.6a2.4,2.4,0,0,1-.218-1.088,2.354,2.354,0,0,1,.377-1.183c.254-.357.491-.726.737-1.088.22-.324.44-.647.666-.967.317-.449.64-.894.96-1.34.356-.5.715-.988,1.066-1.487.293-.416.573-.841.867-1.258.244-.347.5-.684.748-1.031s.482-.716.73-1.069c.183-.26.386-.5.568-.765.2-.28.377-.571.569-.854.1-.143.2-.283.31-.417a6.675,6.675,0,0,1,.6-.694,2.067,2.067,0,0,1,.618-.392,2.338,2.338,0,0,1,1.366-.164,2.516,2.516,0,0,1,1.014.406c.463.344.945.664,1.417,1,.263.185.518.381.783.563.314.216.639.416.95.635.41.289.809.595,1.219.884.352.249.717.481,1.069.729.262.184.509.389.771.573.279.2.571.373.851.569.253.177.492.373.744.551.279.2.565.383.847.576.181.124.359.25.538.377q.3.21.591.422c.33.239.657.481.989.717.206.146.422.279.629.424.359.25.714.506,1.072.758.262.183.528.361.789.545s.508.37.765.551c.281.2.566.389.848.586.253.176.5.357.755.534.29.2.584.4.873.606.259.185.512.38.771.565.275.2.552.389.83.581.175.121.354.235.528.357.288.2.569.414.861.611a2.664,2.664,0,0,1,.924.941,2.911,2.911,0,0,1,.266.731,2.755,2.755,0,0,1,.065.81,2.159,2.159,0,0,1-.384,1.06c-.253.359-.5.724-.751,1.083s-.5.691-.741,1.039c-.184.261-.357.529-.543.788-.3.413-.6.818-.9,1.232-.2.275-.374.562-.568.838-.179.255-.376.5-.548.757a.676.676,0,0,0-.114.347c-.008,1.468-.005,2.936-.005,4.4,0,.229-.012.46,0,.688a2.315,2.315,0,0,1-.17.992,2.384,2.384,0,0,1-.734,1.013,2.57,2.57,0,0,1-1.7.571c-.961-.012-1.923,0-2.884,0h-16.58c-1.491,0-2.982,0-4.473,0a2.441,2.441,0,0,1-1.162-.267,2.431,2.431,0,0,1-.936-.847,2.614,2.614,0,0,1-.424-1.462c.008-2.93,0-5.86,0-8.79,0-1.249.01-2.5-.005-3.747a2.551,2.551,0,0,1,.345-1.291,1.923,1.923,0,0,1,.721-.758C-577.041-412.3-576.767-412.445-576.486-412.6Zm-.294,8.079v.294q0,1.96,0,3.921c0,.944.014,1.888-.005,2.832a.969.969,0,0,0,.921.926c.932.005,1.865,0,2.8,0H-560.3q4.189,0,8.377,0a1.288,1.288,0,0,0,.424-.088.867.867,0,0,0,.6-.906q0-3.359,0-6.718c0-.276,0-.276-.267-.26-.04,0-.081,0-.121,0l-3.7-.049c-.258,0-.516,0-.774,0a.632.632,0,0,0-.086.009,2.157,2.157,0,0,1-.287.039q-5.277,0-10.554,0c-.441,0-.881-.044-1.321-.044s-.87.034-1.306.043c-.135,0-.272-.042-.407-.04-.187,0-.374.041-.562.041q-3.1,0-6.2,0Zm0-3.2h25.872v-.215c0-.7-.016-1.4,0-2.1a.941.941,0,0,0-1-1q-5.275.013-10.549,0l-11.416-.007c-.656,0-1.312.016-1.967,0a.931.931,0,0,0-.951.961c.023.592,0,1.186,0,1.779Zm23.475-4.9c.426,0,.852.007,1.278,0a2.6,2.6,0,0,1,1.672.478,2.443,2.443,0,0,1,.88,1.143,2.714,2.714,0,0,1,.162.986c-.01.426,0,.852,0,1.278a.288.288,0,0,0,.067.2c.126.108.271.194.408.29.286.2.574.4.854.6.078.058.1.052.152-.028.134-.216.275-.428.42-.637.311-.446.617-.9.944-1.332a.827.827,0,0,0-.116-1.043c-.306-.268-.647-.5-.979-.735-.368-.263-.745-.512-1.114-.772-.267-.188-.527-.383-.792-.574q-.342-.246-.687-.487c-.3-.207-.592-.411-.887-.619-.248-.174-.492-.354-.741-.527-.278-.193-.564-.375-.841-.57-.261-.183-.512-.38-.772-.565-.281-.2-.568-.388-.849-.586-.429-.3-.853-.614-1.283-.916-.239-.168-.488-.323-.727-.492-.348-.247-.688-.5-1.037-.75-.284-.2-.581-.383-.865-.582-.26-.183-.51-.38-.769-.566-.3-.216-.6-.425-.907-.638-.15-.106-.3-.216-.447-.321-.212-.147-.428-.289-.641-.437-.276-.192-.549-.387-.824-.58-.179-.125-.362-.245-.54-.372-.341-.244-.677-.495-1.018-.737-.261-.185-.53-.358-.79-.543-.346-.245-.685-.5-1.032-.745-.413-.291-.837-.566-1.247-.861a.9.9,0,0,0-1.31.263c-.116.186-.243.365-.372.544s-.282.374-.421.563-.3.405-.442.614c-.056.082-.152.187-.024.28.243.177.5.341.743.512q.293.2.584.407c.348.245.7.489,1.044.737.2.14.387.288.584.428.264.188.53.372.8.556s.538.362.8.549c.349.245.692.5,1.04.743.193.136.392.263.585.4.272.193.539.393.812.585s.529.354.787.54c.408.292.807.6,1.216.887.348.247.708.476,1.059.719.366.254.727.515,1.091.772.179.126.362.248.54.375.356.254.71.51,1.064.765.263.19.521.387.791.566a1.012,1.012,0,0,0,.659.246C-554.263-412.643-553.784-412.619-553.306-412.619Zm-7.354,0,.023-.045-10.241-7.216q-.354.517-.707,1.031c-.124.181-.249.361-.376.54-.252.355-.507.708-.758,1.062-.133.188-.261.379-.394.566s-.277.38-.412.572-.252.37-.38.553c-.141.2-.284.4-.427.6s-.29.39-.423.592a2.274,2.274,0,0,0-.333.578.871.871,0,0,0,.369.954.88.88,0,0,0,.614.221c.66-.024,1.323-.008,1.984-.008h11.462Z" fill="#4b85ff"/>
    <path id="Trazado_1436" data-name="Trazado 1436" d="M-439.094-242.034h-5.953v-2.286h5.953Z" transform="translate(-114.123 -155.882)" fill="#4b85ff"/>
  </g>
</svg>
