<svg xmlns="http://www.w3.org/2000/svg" xmlns:xlink="http://www.w3.org/1999/xlink" width="26" height="24" viewBox="0 0 26 24">
  <defs>
    <clipPath id="clip-path">
      <rect width="26" height="24" fill="none"/>
    </clipPath>
  </defs>
  <g id="Travel" clip-path="url(#clip-path)">
    <rect id="Rectángulo_1454" data-name="Rectángulo 1454" width="23" height="23" fill="none"/>
    <path id="Trazado_262" data-name="Trazado 262" d="M22.417.575A3.013,3.013,0,0,0,20.836,0a4.425,4.425,0,0,0-1.868.431,10.718,10.718,0,0,0-1.724,1.006A5.05,5.05,0,0,0,15.95,2.443a7.5,7.5,0,0,0-1.724,1.868l-9.34-2.73c-.287,0-.431-.144-.862,0a1.1,1.1,0,0,0-.718.287L2.3,3.018c-.287.144-.287.287-.287.575s.144.431.431.575L10.2,9.2c-.144.287-1.006,1.15-2.3,2.73l-4.742-.718a1.737,1.737,0,0,0-1.437.431L.144,13.364A.528.528,0,0,0,0,13.795q0,.216.431.431l5.46,1.868A1.42,1.42,0,0,1,6.9,17.1l1.868,5.46q.216.431.431.431a.528.528,0,0,0,.431-.144l1.581-1.581a1.378,1.378,0,0,0,.431-1.437l-.718-4.742c.144-.144,1.006-.862,2.73-2.155l5.029,7.76a1.984,1.984,0,0,0,.575.431c.287,0,.431,0,.575-.144l1.15-1.15a1.1,1.1,0,0,0,.287-.718v-.862L18.681,8.765a17.2,17.2,0,0,0,2.012-1.724,6.964,6.964,0,0,0,1.293-1.868,7.075,7.075,0,0,0,.862-2.443A2.255,2.255,0,0,0,22.417.575Z" fill="#4b85ff"/>
  </g>
</svg>
